G04 #@! TF.GenerationSoftware,KiCad,Pcbnew,(5.1.2)-2*
G04 #@! TF.CreationDate,2019-10-14T20:46:41-04:00*
G04 #@! TF.ProjectId,dak-base-station,64616b2d-6261-4736-952d-73746174696f,rev?*
G04 #@! TF.SameCoordinates,Original*
G04 #@! TF.FileFunction,Copper,L2,Bot*
G04 #@! TF.FilePolarity,Positive*
%FSLAX46Y46*%
G04 Gerber Fmt 4.6, Leading zero omitted, Abs format (unit mm)*
G04 Created by KiCad (PCBNEW (5.1.2)-2) date 2019-10-14 20:46:41*
%MOMM*%
%LPD*%
G04 APERTURE LIST*
%ADD10O,2.050000X4.000000*%
%ADD11O,4.000000X2.000000*%
%ADD12C,1.010000*%
%ADD13C,1.400000*%
G04 APERTURE END LIST*
D10*
X72390000Y-102870000D03*
X74930000Y-102870000D03*
X77470000Y-102870000D03*
X80010000Y-102870000D03*
X56007000Y-86868000D03*
X58547000Y-86868000D03*
X61087000Y-86868000D03*
X63627000Y-86868000D03*
X66167000Y-86868000D03*
X68707000Y-86868000D03*
X71247000Y-86868000D03*
X73787000Y-86868000D03*
X76327000Y-86868000D03*
X78867000Y-86868000D03*
X81407000Y-86868000D03*
X83947000Y-86868000D03*
X86487000Y-86868000D03*
X89027000Y-86868000D03*
X91567000Y-86868000D03*
X94107000Y-86868000D03*
X94107000Y-61468000D03*
X91567000Y-61468000D03*
X89027000Y-61468000D03*
X86487000Y-61468000D03*
X83947000Y-61468000D03*
X81407000Y-61468000D03*
X78867000Y-61468000D03*
X76327000Y-61468000D03*
X73787000Y-61468000D03*
X71247000Y-61468000D03*
X94234000Y-46990000D03*
X91694000Y-46990000D03*
X89154000Y-46990000D03*
D11*
X105664000Y-76962000D03*
X105664000Y-74422000D03*
X105664000Y-71882000D03*
D12*
X40640000Y-104140000D03*
D13*
X40640000Y-99060000D02*
X40640000Y-109220000D01*
X35560000Y-104140000D02*
X40640000Y-104140000D01*
X40640000Y-104140000D02*
X45720000Y-104140000D01*
X58547000Y-90068000D02*
X64364000Y-95885000D01*
X58547000Y-86868000D02*
X58547000Y-90068000D01*
X80010000Y-99470000D02*
X80010000Y-102870000D01*
X76425000Y-95885000D02*
X80010000Y-99470000D01*
X64364000Y-95885000D02*
X76425000Y-95885000D01*
X94107000Y-102743000D02*
X94107000Y-86868000D01*
X89535000Y-107315000D02*
X94107000Y-102743000D01*
X78515000Y-107315000D02*
X89535000Y-107315000D01*
X77470000Y-102870000D02*
X77470000Y-106270000D01*
X77470000Y-106270000D02*
X78515000Y-107315000D01*
X77470000Y-102870000D02*
X74930000Y-102870000D01*
X79942081Y-41910000D02*
X74930000Y-41910000D01*
X71247000Y-45593000D02*
X71247000Y-61468000D01*
X74930000Y-41910000D02*
X71247000Y-45593000D01*
X72390000Y-106270000D02*
X72390000Y-102870000D01*
X76610000Y-110490000D02*
X72390000Y-106270000D01*
X79942081Y-41910000D02*
X110490000Y-41910000D01*
X94234000Y-46990000D02*
X105410000Y-46990000D01*
X105410000Y-46990000D02*
X110490000Y-41910000D01*
X105664000Y-74422000D02*
X109093000Y-74422000D01*
X109093000Y-74422000D02*
X113030000Y-70485000D01*
X113030000Y-44450000D02*
X110490000Y-41910000D01*
X113030000Y-70485000D02*
X113030000Y-44450000D01*
X113030000Y-90805000D02*
X93345000Y-110490000D01*
X113030000Y-70485000D02*
X113030000Y-90805000D01*
X93345000Y-110490000D02*
X76610000Y-110490000D01*
X91567000Y-83668000D02*
X91567000Y-86868000D01*
X98273000Y-76962000D02*
X91567000Y-83668000D01*
X105664000Y-76962000D02*
X98273000Y-76962000D01*
X79030000Y-46990000D02*
X81280000Y-46990000D01*
X73787000Y-52233000D02*
X79030000Y-46990000D01*
X73787000Y-61468000D02*
X73787000Y-52233000D01*
X81280000Y-46990000D02*
X89154000Y-46990000D01*
X73787000Y-64668000D02*
X73787000Y-61468000D01*
X73787000Y-67788217D02*
X73787000Y-64668000D01*
X77880783Y-71882000D02*
X73787000Y-67788217D01*
X105664000Y-71882000D02*
X77880783Y-71882000D01*
X91567000Y-47117000D02*
X91694000Y-46990000D01*
X91567000Y-61468000D02*
X91567000Y-47117000D01*
M02*
