G04 #@! TF.GenerationSoftware,KiCad,Pcbnew,(5.1.2)-2*
G04 #@! TF.CreationDate,2019-10-14T20:46:41-04:00*
G04 #@! TF.ProjectId,dak-base-station,64616b2d-6261-4736-952d-73746174696f,rev?*
G04 #@! TF.SameCoordinates,Original*
G04 #@! TF.FileFunction,Copper,L1,Top*
G04 #@! TF.FilePolarity,Positive*
%FSLAX46Y46*%
G04 Gerber Fmt 4.6, Leading zero omitted, Abs format (unit mm)*
G04 Created by KiCad (PCBNEW (5.1.2)-2) date 2019-10-14 20:46:41*
%MOMM*%
%LPD*%
G04 APERTURE LIST*
%ADD10C,0.750000*%
%ADD11O,2.050000X4.000000*%
%ADD12O,4.000000X2.000000*%
%ADD13C,1.010000*%
%ADD14C,1.400000*%
G04 APERTURE END LIST*
D10*
X115657142Y-97628571D02*
X112657142Y-97628571D01*
X112657142Y-96914285D01*
X112800000Y-96485714D01*
X113085714Y-96200000D01*
X113371428Y-96057142D01*
X113942857Y-95914285D01*
X114371428Y-95914285D01*
X114942857Y-96057142D01*
X115228571Y-96200000D01*
X115514285Y-96485714D01*
X115657142Y-96914285D01*
X115657142Y-97628571D01*
X114800000Y-94771428D02*
X114800000Y-93342857D01*
X115657142Y-95057142D02*
X112657142Y-94057142D01*
X115657142Y-93057142D01*
X115657142Y-92057142D02*
X112657142Y-92057142D01*
X115657142Y-90342857D02*
X113942857Y-91628571D01*
X112657142Y-90342857D02*
X114371428Y-92057142D01*
X113657142Y-85485714D02*
X115657142Y-85485714D01*
X112514285Y-86200000D02*
X114657142Y-86914285D01*
X114657142Y-85057142D01*
X112657142Y-84200000D02*
X112657142Y-82342857D01*
X113800000Y-83342857D01*
X113800000Y-82914285D01*
X113942857Y-82628571D01*
X114085714Y-82485714D01*
X114371428Y-82342857D01*
X115085714Y-82342857D01*
X115371428Y-82485714D01*
X115514285Y-82628571D01*
X115657142Y-82914285D01*
X115657142Y-83771428D01*
X115514285Y-84057142D01*
X115371428Y-84200000D01*
X112657142Y-81342857D02*
X112657142Y-79485714D01*
X113800000Y-80485714D01*
X113800000Y-80057142D01*
X113942857Y-79771428D01*
X114085714Y-79628571D01*
X114371428Y-79485714D01*
X115085714Y-79485714D01*
X115371428Y-79628571D01*
X115514285Y-79771428D01*
X115657142Y-80057142D01*
X115657142Y-80914285D01*
X115514285Y-81200000D01*
X115371428Y-81342857D01*
X115657142Y-75914285D02*
X113657142Y-75914285D01*
X113942857Y-75914285D02*
X113800000Y-75771428D01*
X113657142Y-75485714D01*
X113657142Y-75057142D01*
X113800000Y-74771428D01*
X114085714Y-74628571D01*
X115657142Y-74628571D01*
X114085714Y-74628571D02*
X113800000Y-74485714D01*
X113657142Y-74200000D01*
X113657142Y-73771428D01*
X113800000Y-73485714D01*
X114085714Y-73342857D01*
X115657142Y-73342857D01*
X115657142Y-71914285D02*
X112657142Y-71914285D01*
X114085714Y-71914285D02*
X114085714Y-70200000D01*
X115657142Y-70200000D02*
X112657142Y-70200000D01*
X113657142Y-69057142D02*
X113657142Y-67485714D01*
X115657142Y-69057142D01*
X115657142Y-67485714D01*
X114085714Y-63057142D02*
X114228571Y-62628571D01*
X114371428Y-62485714D01*
X114657142Y-62342857D01*
X115085714Y-62342857D01*
X115371428Y-62485714D01*
X115514285Y-62628571D01*
X115657142Y-62914285D01*
X115657142Y-64057142D01*
X112657142Y-64057142D01*
X112657142Y-63057142D01*
X112800000Y-62771428D01*
X112942857Y-62628571D01*
X113228571Y-62485714D01*
X113514285Y-62485714D01*
X113800000Y-62628571D01*
X113942857Y-62771428D01*
X114085714Y-63057142D01*
X114085714Y-64057142D01*
X115657142Y-59771428D02*
X114085714Y-59771428D01*
X113800000Y-59914285D01*
X113657142Y-60200000D01*
X113657142Y-60771428D01*
X113800000Y-61057142D01*
X115514285Y-59771428D02*
X115657142Y-60057142D01*
X115657142Y-60771428D01*
X115514285Y-61057142D01*
X115228571Y-61200000D01*
X114942857Y-61200000D01*
X114657142Y-61057142D01*
X114514285Y-60771428D01*
X114514285Y-60057142D01*
X114371428Y-59771428D01*
X115514285Y-58485714D02*
X115657142Y-58200000D01*
X115657142Y-57628571D01*
X115514285Y-57342857D01*
X115228571Y-57200000D01*
X115085714Y-57200000D01*
X114800000Y-57342857D01*
X114657142Y-57628571D01*
X114657142Y-58057142D01*
X114514285Y-58342857D01*
X114228571Y-58485714D01*
X114085714Y-58485714D01*
X113800000Y-58342857D01*
X113657142Y-58057142D01*
X113657142Y-57628571D01*
X113800000Y-57342857D01*
X115514285Y-54771428D02*
X115657142Y-55057142D01*
X115657142Y-55628571D01*
X115514285Y-55914285D01*
X115228571Y-56057142D01*
X114085714Y-56057142D01*
X113800000Y-55914285D01*
X113657142Y-55628571D01*
X113657142Y-55057142D01*
X113800000Y-54771428D01*
X114085714Y-54628571D01*
X114371428Y-54628571D01*
X114657142Y-56057142D01*
X50094285Y-41537142D02*
X50094285Y-43680000D01*
X49951428Y-44108571D01*
X49665714Y-44394285D01*
X49237142Y-44537142D01*
X48951428Y-44537142D01*
X51522857Y-44537142D02*
X51522857Y-41537142D01*
X52665714Y-41537142D01*
X52951428Y-41680000D01*
X53094285Y-41822857D01*
X53237142Y-42108571D01*
X53237142Y-42537142D01*
X53094285Y-42822857D01*
X52951428Y-42965714D01*
X52665714Y-43108571D01*
X51522857Y-43108571D01*
X54380000Y-41822857D02*
X54522857Y-41680000D01*
X54808571Y-41537142D01*
X55522857Y-41537142D01*
X55808571Y-41680000D01*
X55951428Y-41822857D01*
X56094285Y-42108571D01*
X56094285Y-42394285D01*
X55951428Y-42822857D01*
X54237142Y-44537142D01*
X56094285Y-44537142D01*
X57380000Y-43394285D02*
X59665714Y-43394285D01*
X62665714Y-44537142D02*
X60951428Y-44537142D01*
X61808571Y-44537142D02*
X61808571Y-41537142D01*
X61522857Y-41965714D01*
X61237142Y-42251428D01*
X60951428Y-42394285D01*
D11*
X72390000Y-102870000D03*
X74930000Y-102870000D03*
X77470000Y-102870000D03*
X80010000Y-102870000D03*
X56007000Y-86868000D03*
X58547000Y-86868000D03*
X61087000Y-86868000D03*
X63627000Y-86868000D03*
X66167000Y-86868000D03*
X68707000Y-86868000D03*
X71247000Y-86868000D03*
X73787000Y-86868000D03*
X76327000Y-86868000D03*
X78867000Y-86868000D03*
X81407000Y-86868000D03*
X83947000Y-86868000D03*
X86487000Y-86868000D03*
X89027000Y-86868000D03*
X91567000Y-86868000D03*
X94107000Y-86868000D03*
X94107000Y-61468000D03*
X91567000Y-61468000D03*
X89027000Y-61468000D03*
X86487000Y-61468000D03*
X83947000Y-61468000D03*
X81407000Y-61468000D03*
X78867000Y-61468000D03*
X76327000Y-61468000D03*
X73787000Y-61468000D03*
X71247000Y-61468000D03*
X94234000Y-46990000D03*
X91694000Y-46990000D03*
X89154000Y-46990000D03*
D12*
X105664000Y-76962000D03*
X105664000Y-74422000D03*
X105664000Y-71882000D03*
D13*
X40640000Y-104140000D03*
D14*
X35560000Y-104140000D02*
X45720000Y-104140000D01*
X40640000Y-99060000D02*
X40640000Y-109220000D01*
M02*
