G04 #@! TF.GenerationSoftware,KiCad,Pcbnew,(5.1.2)-2*
G04 #@! TF.CreationDate,2019-10-14T19:45:39-04:00*
G04 #@! TF.ProjectId,dak-base-station,64616b2d-6261-4736-952d-73746174696f,rev?*
G04 #@! TF.SameCoordinates,Original*
G04 #@! TF.FileFunction,Copper,L2,Bot*
G04 #@! TF.FilePolarity,Positive*
%FSLAX46Y46*%
G04 Gerber Fmt 4.6, Leading zero omitted, Abs format (unit mm)*
G04 Created by KiCad (PCBNEW (5.1.2)-2) date 2019-10-14 19:45:39*
%MOMM*%
%LPD*%
G04 APERTURE LIST*
%ADD10O,1.700000X1.700000*%
%ADD11R,1.700000X1.700000*%
%ADD12O,2.050000X3.600000*%
%ADD13C,1.400000*%
G04 APERTURE END LIST*
D10*
X80010000Y-102870000D03*
X77470000Y-102870000D03*
X74930000Y-102870000D03*
D11*
X72390000Y-102870000D03*
D12*
X71247000Y-61468000D03*
X73787000Y-61468000D03*
X76327000Y-61468000D03*
X78867000Y-61468000D03*
X81407000Y-61468000D03*
X83947000Y-61468000D03*
X86487000Y-61468000D03*
X89027000Y-61468000D03*
X91567000Y-61468000D03*
X94107000Y-61468000D03*
X94107000Y-86868000D03*
X91567000Y-86868000D03*
X89027000Y-86868000D03*
X86487000Y-86868000D03*
X83947000Y-86868000D03*
X81407000Y-86868000D03*
X78867000Y-86868000D03*
X76327000Y-86868000D03*
X73787000Y-86868000D03*
X71247000Y-86868000D03*
X68707000Y-86868000D03*
X66167000Y-86868000D03*
X63627000Y-86868000D03*
X61087000Y-86868000D03*
X58547000Y-86868000D03*
X56007000Y-86868000D03*
D10*
X111760000Y-77470000D03*
X111760000Y-74930000D03*
D11*
X111760000Y-72390000D03*
D10*
X86360000Y-46990000D03*
X83820000Y-46990000D03*
D11*
X81280000Y-46990000D03*
D13*
X58547000Y-90068000D02*
X64364000Y-95885000D01*
X58547000Y-86868000D02*
X58547000Y-90068000D01*
X80010000Y-99470000D02*
X80010000Y-102870000D01*
X76425000Y-95885000D02*
X80010000Y-99470000D01*
X64364000Y-95885000D02*
X76425000Y-95885000D01*
X94107000Y-102743000D02*
X94107000Y-86868000D01*
X89535000Y-107315000D02*
X94107000Y-102743000D01*
X78515000Y-107315000D02*
X89535000Y-107315000D01*
X77470000Y-102870000D02*
X77470000Y-106270000D01*
X77470000Y-106270000D02*
X78515000Y-107315000D01*
X77470000Y-102870000D02*
X74930000Y-102870000D01*
X83820000Y-45787919D02*
X79942081Y-41910000D01*
X83820000Y-46990000D02*
X83820000Y-45787919D01*
X79942081Y-41910000D02*
X74930000Y-41910000D01*
X71247000Y-45593000D02*
X71247000Y-61468000D01*
X74930000Y-41910000D02*
X71247000Y-45593000D01*
X79942081Y-41910000D02*
X114300000Y-41910000D01*
X114300000Y-41910000D02*
X120015000Y-47625000D01*
X111760000Y-77470000D02*
X111760000Y-81915000D01*
X120015000Y-90170000D02*
X120015000Y-95885000D01*
X111760000Y-81915000D02*
X120015000Y-90170000D01*
X120015000Y-47625000D02*
X120015000Y-95885000D01*
X72390000Y-106270000D02*
X72390000Y-102870000D01*
X76610000Y-110490000D02*
X72390000Y-106270000D01*
X120015000Y-95885000D02*
X105410000Y-110490000D01*
X105410000Y-110490000D02*
X76610000Y-110490000D01*
X91567000Y-52197000D02*
X86360000Y-46990000D01*
X91567000Y-61468000D02*
X91567000Y-52197000D01*
X109510000Y-72390000D02*
X111760000Y-72390000D01*
X81509000Y-72390000D02*
X109510000Y-72390000D01*
X73787000Y-64668000D02*
X81509000Y-72390000D01*
X73787000Y-61468000D02*
X73787000Y-64668000D01*
X79030000Y-46990000D02*
X81280000Y-46990000D01*
X73787000Y-52233000D02*
X79030000Y-46990000D01*
X73787000Y-61468000D02*
X73787000Y-52233000D01*
X110557919Y-74930000D02*
X105477919Y-80010000D01*
X111760000Y-74930000D02*
X110557919Y-74930000D01*
X91567000Y-83668000D02*
X91567000Y-86868000D01*
X95225000Y-80010000D02*
X91567000Y-83668000D01*
X105477919Y-80010000D02*
X95225000Y-80010000D01*
M02*
