M48
; DRILL file {KiCad (5.1.2)-2} date 10/14/2019 7:45:45 PM
; FORMAT={-:-/ absolute / inch / decimal}
; #@! TF.CreationDate,2019-10-14T19:45:45-04:00
; #@! TF.GenerationSoftware,Kicad,Pcbnew,(5.1.2)-2
FMAT,2
INCH
T1C0.0394
T2C0.1260
%
G90
G05
T1
X2.85Y-4.05
X2.95Y-4.05
X3.05Y-4.05
X3.15Y-4.05
X2.205Y-3.42
X2.305Y-3.42
X2.405Y-3.42
X2.505Y-3.42
X2.605Y-3.42
X2.705Y-3.42
X2.805Y-2.42
X2.805Y-3.42
X2.905Y-2.42
X2.905Y-3.42
X3.005Y-2.42
X3.005Y-3.42
X3.105Y-2.42
X3.105Y-3.42
X3.205Y-2.42
X3.205Y-3.42
X3.305Y-2.42
X3.305Y-3.42
X3.405Y-2.42
X3.405Y-3.42
X3.505Y-2.42
X3.505Y-3.42
X3.605Y-2.42
X3.605Y-3.42
X3.705Y-2.42
X3.705Y-3.42
X4.4Y-2.85
X4.4Y-2.95
X4.4Y-3.05
X3.2Y-1.85
X3.3Y-1.85
X3.4Y-1.85
T2
X4.65Y-4.25
X1.45Y-1.75
T0
M30
