M48
; DRILL file {KiCad (5.1.2)-2} date 10/14/2019 8:46:44 PM
; FORMAT={-:-/ absolute / inch / decimal}
; #@! TF.CreationDate,2019-10-14T20:46:44-04:00
; #@! TF.GenerationSoftware,Kicad,Pcbnew,(5.1.2)-2
FMAT,2
INCH
T1C0.0394
T2C0.1260
%
G90
G05
T1
X1.6Y-4.1
X2.85Y-4.05
X2.95Y-4.05
X3.05Y-4.05
X3.15Y-4.05
X4.16Y-2.83
X4.16Y-2.93
X4.16Y-3.03
X2.205Y-3.42
X2.305Y-3.42
X2.405Y-3.42
X2.505Y-3.42
X2.605Y-3.42
X2.705Y-3.42
X2.805Y-2.42
X2.805Y-3.42
X2.905Y-2.42
X2.905Y-3.42
X3.005Y-2.42
X3.005Y-3.42
X3.105Y-2.42
X3.105Y-3.42
X3.205Y-2.42
X3.205Y-3.42
X3.305Y-2.42
X3.305Y-3.42
X3.405Y-2.42
X3.405Y-3.42
X3.505Y-2.42
X3.505Y-3.42
X3.605Y-2.42
X3.605Y-3.42
X3.705Y-2.42
X3.705Y-3.42
X3.51Y-1.85
X3.61Y-1.85
X3.71Y-1.85
T2
X4.3Y-4.2
X1.5Y-1.8
T0
M30
